<svg width="97" height="32" viewBox="0 0 97 32" fill="none" xmlns="http://www.w3.org/2000/svg">
<g clip-path="url(#clip0_50_119)">
<path d="M38.8325 10.5009C38.4133 10.3341 38.0061 10.1612 37.5915 10.0096C36.5446 9.63225 35.4583 9.37456 34.3535 9.24146C33.5241 9.13689 32.6872 9.10586 31.8524 9.14875C29.9146 9.24254 28.0115 9.69871 26.2417 10.4936C24.9203 11.0805 23.694 11.8617 22.6037 12.8113C21.5117 13.7701 20.5509 14.8449 19.8735 16.1407C19.5383 16.7931 19.2794 17.4819 19.1021 18.1935C19.0425 18.4233 18.9438 18.5802 18.6961 18.6239C18.5789 18.6569 18.4645 18.699 18.3538 18.7497C18.5001 18.3829 18.6147 18.0677 18.7511 17.7611C19.5165 16.0005 20.5227 14.3547 21.7409 12.8709C24.0168 10.1063 26.8794 8.27732 30.3943 7.49859C31.1969 7.31496 32.0154 7.2094 32.8384 7.18339C33.0748 7.1781 33.3105 7.14035 33.5463 7.14168C35.6176 7.15426 37.618 7.52309 39.5311 8.33361C39.6337 8.37731 39.7377 8.41704 39.8489 8.46207C40.127 8.09853 40.3787 7.73367 40.6674 7.40258C41.2249 6.7543 41.7653 6.08285 42.3798 5.48887C44.91 3.03283 47.8839 1.35486 51.3193 0.522493C52.1109 0.33808 52.9129 0.201862 53.721 0.114588C54.7149 0.00175484 55.7165 -0.0285885 56.7154 0.0238692C59.8318 0.180795 62.8623 1.09862 65.542 2.69713C68.2218 4.29564 70.4693 6.52618 72.088 9.19378C72.5899 10.0222 72.8826 10.932 73.1051 11.867C73.3185 12.8107 73.4674 13.7677 73.5508 14.7316C73.6884 16.2398 73.7494 17.7539 73.7335 19.2682C73.7335 19.3702 73.7335 19.4715 73.7335 19.5881C73.5792 19.5444 73.6097 19.4285 73.6011 19.353C73.5015 18.1313 73.2774 16.9229 72.9323 15.7467C72.4449 14.0624 71.7228 12.4549 70.7875 10.9717C70.0764 9.84704 69.2533 8.7972 68.3308 7.83829C66.746 6.18008 64.8749 4.82156 62.8075 3.82811C59.9319 2.44671 56.7501 1.82568 53.5661 2.02432C52.1164 2.11468 50.6816 2.36858 49.289 2.7812C46.6857 3.52905 44.2737 4.82779 42.2162 6.58942C40.9847 7.64483 39.9139 8.87446 39.0378 10.2394C38.9927 10.3056 38.9477 10.3771 38.9 10.4446C38.8794 10.4656 38.8568 10.4844 38.8325 10.5009Z" fill="#0055FF"/>
<path d="M95.1378 21.8812V16.3937C95.4418 16.3202 95.7298 16.3646 96.0132 16.3566C96.2966 16.3487 96.5907 16.3566 96.9012 16.3566C96.9105 16.45 96.9257 16.5281 96.9257 16.6069C96.9257 19.8907 96.9363 23.1744 96.9198 26.4575C96.9151 27.3608 96.6138 28.2017 96.1635 28.9791C95.3027 30.4604 94.0446 31.4484 92.3706 31.8265C90.0834 32.341 88.0968 31.7312 86.4964 30.0121C85.6787 29.1373 85.1632 28.0232 85.0256 26.8337C84.8032 25.0544 85.2574 23.4665 86.4281 22.0951C87.3618 21.0012 88.5538 20.3463 89.9596 20.0993C91.276 19.8682 92.5209 20.1238 93.6837 20.7747C93.9442 20.9206 94.1947 21.0838 94.4333 21.2634C94.6611 21.4356 94.8657 21.6395 95.1378 21.8812ZM90.9555 30.1876C93.2566 30.2075 95.1352 28.2832 95.1431 26.0324C95.1511 23.7658 93.3102 21.8262 90.9714 21.8276C88.72 21.8276 86.7791 23.5671 86.7745 25.9993C86.7685 28.5216 88.8213 30.2022 90.9555 30.1876Z" fill="#0055FF"/>
<path d="M58.1068 20.337C57.4234 20.337 56.7751 20.337 56.1268 20.337C55.9898 20.337 55.9282 20.2555 55.858 20.1628C55.0634 19.1331 54.0701 18.3749 52.8351 17.9485C52.0047 17.6621 51.1208 17.5648 50.248 17.6637C48.7163 17.8306 47.4237 18.4789 46.3675 19.5761C45.3425 20.6409 44.7386 21.9123 44.624 23.4035C44.4863 25.1961 45.0432 26.7489 46.2258 28.0825C47.241 29.2281 48.5137 29.9174 50.0354 30.1234C52.0259 30.3922 53.737 29.7923 55.1845 28.4209C55.4905 28.1315 55.756 27.7998 56.0593 27.4667H58.0737C57.2962 29.4473 54.4826 32.253 50.3181 31.9835C46.5722 31.7391 43.3652 28.8348 42.8606 24.957C42.3401 20.9753 44.7902 17.3677 48.4541 16.2003C52.2941 14.9733 56.3685 16.8029 58.1068 20.337Z" fill="#0055FF"/>
<path d="M15.1772 20.2721C15.1037 20.2794 15.0348 20.2926 14.966 20.2926C14.4362 20.2926 13.9118 20.288 13.3847 20.2973C13.3142 20.3015 13.2438 20.2868 13.1808 20.2548C13.1179 20.2228 13.0646 20.1746 13.0264 20.1152C12.0332 18.8391 10.7525 17.9995 9.15399 17.7028C7.92923 17.4674 6.66147 17.6229 5.52986 18.1471C4.07305 18.8093 3.00297 19.8653 2.31959 21.315C1.9491 22.1156 1.75466 22.9863 1.7494 23.8684C1.74415 24.7505 1.9282 25.6235 2.28913 26.4284C2.9639 27.9322 4.06246 29.0149 5.5623 29.6923C6.19368 29.9743 6.8692 30.1445 7.55879 30.1956C9.37052 30.3439 10.9233 29.7599 12.257 28.5613C12.5609 28.2885 12.8165 27.9614 13.0887 27.6534C13.1595 27.5727 13.2211 27.5071 13.341 27.5084C13.9402 27.5144 14.5395 27.5137 15.1388 27.5164C15.156 27.5164 15.1739 27.5343 15.2209 27.5594C14.5365 28.9133 13.4832 30.046 12.1827 30.827C10.8822 31.6081 9.38736 32.0055 7.87067 31.9735C5.61925 31.9153 3.69892 31.0465 2.16861 29.4016C0.638309 27.7568 -0.0927412 25.7649 0.00923502 23.4956C0.175443 19.8059 3.00363 16.5149 6.85356 15.9421C11.0492 15.3176 14.2151 18.0008 15.1772 20.2721Z" fill="#0055FF"/>
<path d="M73.5059 25.994C73.5125 27.5191 72.9357 28.9889 71.8937 30.1025C70.8517 31.216 69.4233 31.889 67.9011 31.9834C64.2505 32.1927 61.6104 29.3208 61.5289 26.1946C61.4798 24.627 62.0475 23.1026 63.1101 21.949C64.1727 20.7954 65.6454 20.1046 67.2118 20.0251C70.734 19.8575 73.5165 22.6804 73.5059 25.994ZM67.5118 30.1876C69.8076 30.2095 71.6941 28.2905 71.7021 26.0351C71.7107 23.7677 69.8711 21.8282 67.5303 21.8275C65.2868 21.8275 63.3387 23.5552 63.3307 25.9993C63.3248 28.5242 65.3848 30.2015 67.5118 30.1876Z" fill="#0055FF"/>
<path d="M28.0685 26.0238C28.0685 29.1884 25.5754 31.9715 22.1036 31.9715C18.7708 31.9715 16.1539 29.3499 16.1439 26.0119C16.1333 22.5275 19.0708 19.9079 22.3797 20.0522C25.3403 20.186 28.0891 22.6705 28.0685 26.0238ZM26.3038 26.0238C26.37 23.9154 24.6523 21.7858 22.0917 21.7964C19.6515 21.8044 17.8994 23.7982 17.8967 25.9986C17.8967 28.2534 19.676 30.228 22.1261 30.2227C24.6133 30.2161 26.3654 28.1329 26.3038 26.0238Z" fill="#0055FF"/>
<path d="M33.7966 31.4325H32.0709V20.5939C32.3451 20.5939 32.6298 20.5873 32.9146 20.5859C33.1993 20.5846 33.4701 20.5859 33.7794 20.5859V21.2528C33.8426 21.2158 33.9038 21.1756 33.9628 21.1322C34.7574 20.4489 35.6785 20.1072 36.7294 20.0694C37.5849 20.0383 38.3928 20.1899 39.1444 20.5959C40.6409 21.4051 41.5203 22.6579 41.7825 24.3372C41.8204 24.6125 41.8374 24.8903 41.8335 25.1682C41.8383 27.1296 41.8383 29.0908 41.8335 31.0517V31.4312H40.0575C40.0575 31.3153 40.0489 31.1967 40.0489 31.0782C40.0489 29.0758 40.0535 27.0733 40.0489 25.0709C40.0489 24.1677 39.7436 23.379 39.0861 22.7387C37.9995 21.6792 36.3162 21.4726 34.9925 22.5798C34.3628 23.1095 33.9529 23.7717 33.8271 24.5915C33.8092 24.7134 33.8006 24.8364 33.8012 24.9596C33.8012 26.9828 33.8012 29.006 33.8012 31.0292L33.7966 31.4325Z" fill="#0055FF"/>
<path d="M91.2488 18.0114L89.3768 18.0842C87.8313 14.9554 85.5375 12.5153 82.4418 10.8598C79.346 9.20437 76.0292 8.72627 72.5752 9.25337L71.6064 7.79988C72.1143 7.42045 74.9836 7.00128 76.743 7.06618C80.332 7.19861 83.5284 8.38525 86.2884 10.6883C88.6391 12.6477 90.2721 15.1057 91.2488 18.0114Z" fill="#0055FF"/>
<path d="M74.5021 20.5872H76.3152V20.8985C76.3231 22.7658 76.3198 24.6339 76.3417 26.5012C76.3569 27.8335 76.9774 28.8188 78.1892 29.3685C79.3195 29.879 80.4141 29.7055 81.3855 28.9447C82.1609 28.3374 82.5324 27.515 82.5291 26.5224C82.5231 24.6643 82.5291 22.8062 82.5291 20.9481V20.5939H84.3249C84.3296 20.6945 84.3382 20.7925 84.3382 20.8938C84.3382 22.8036 84.372 24.714 84.3296 26.6224C84.2872 28.5646 83.3707 30.0088 81.6577 30.9411C80.8822 31.3609 80.003 31.5502 79.1235 31.4868C78.1707 31.4308 77.2566 31.0898 76.4999 30.5081C75.4404 29.7068 74.8021 28.6454 74.561 27.3455C74.5152 27.0818 74.493 26.8145 74.4948 26.5469C74.4889 24.6683 74.4948 22.7897 74.4948 20.9111C74.4889 20.8064 74.4955 20.7058 74.5021 20.5872Z" fill="#0055FF"/>
<path d="M61.0016 31.4776H59.2295V16.3798H61.0016V31.4776Z" fill="#0055FF"/>
<path d="M29.0898 20.5939H30.7453C30.8115 20.819 30.8241 31.0763 30.7579 31.4246H29.0898V20.5939Z" fill="#0055FF"/>
<path d="M29.964 16.3711C30.1321 16.3655 30.2996 16.3947 30.4559 16.4567C30.6123 16.5188 30.7542 16.6125 30.8727 16.7318C30.9912 16.8512 31.0838 16.9938 31.1447 17.1506C31.2057 17.3074 31.2336 17.4751 31.2267 17.6432C31.2155 18.465 30.6096 18.908 29.9507 18.9119C29.3243 18.9159 28.6747 18.4895 28.68 17.6167C28.6839 16.8784 29.217 16.3691 29.964 16.3711Z" fill="#0055FF"/>
</g>
<defs>
<clipPath id="clip0_50_119">
<rect width="96.9297" height="32" fill="white"/>
</clipPath>
</defs>
</svg>
